<?xml version="1.0" encoding="UTF-8"?>
<svg width="700pt" height="700pt" version="1.1" viewBox="0 0 700 700" xmlns="http://www.w3.org/2000/svg" xmlns:xlink="http://www.w3.org/1999/xlink">
 <defs>
  <symbol id="u" overflow="visible">
   <path d="m18.766-1.125c-0.96875 0.5-1.9805 0.875-3.0312 1.125-1.043 0.25781-2.1367 0.39062-3.2812 0.39062-3.3984 0-6.0898-0.94531-8.0781-2.8438-1.9922-1.9062-2.9844-4.4844-2.9844-7.7344 0-3.2578 0.99219-5.8359 2.9844-7.7344 1.9883-1.9062 4.6797-2.8594 8.0781-2.8594 1.1445 0 2.2383 0.13281 3.2812 0.39062 1.0508 0.25 2.0625 0.625 3.0312 1.125v4.2188c-0.98047-0.65625-1.9453-1.1406-2.8906-1.4531-0.94922-0.3125-1.9492-0.46875-3-0.46875-1.875 0-3.3516 0.60547-4.4219 1.8125-1.0742 1.1992-1.6094 2.8555-1.6094 4.9688 0 2.1055 0.53516 3.7617 1.6094 4.9688 1.0703 1.1992 2.5469 1.7969 4.4219 1.7969 1.0508 0 2.0508-0.14844 3-0.45312 0.94531-0.3125 1.9102-0.80078 2.8906-1.4688z"/>
  </symbol>
  <symbol id="b" overflow="visible">
   <path d="m13.734-11.141c-0.4375-0.19531-0.87109-0.34375-1.2969-0.4375-0.41797-0.10156-0.83984-0.15625-1.2656-0.15625-1.2617 0-2.2305 0.40625-2.9062 1.2188-0.67969 0.80469-1.0156 1.9531-1.0156 3.4531v7.0625h-4.8906v-15.312h4.8906v2.5156c0.625-1 1.3438-1.7266 2.1562-2.1875 0.82031-0.46875 1.8008-0.70312 2.9375-0.70312 0.16406 0 0.34375 0.011719 0.53125 0.03125 0.19531 0.011719 0.47656 0.039062 0.84375 0.078125z"/>
  </symbol>
  <symbol id="a" overflow="visible">
   <path d="m17.641-7.7031v1.4062h-11.453c0.125 1.1484 0.53906 2.0078 1.25 2.5781 0.70703 0.57422 1.7031 0.85938 2.9844 0.85938 1.0312 0 2.082-0.14844 3.1562-0.45312 1.082-0.3125 2.1914-0.77344 3.3281-1.3906v3.7656c-1.1562 0.4375-2.3125 0.76562-3.4688 0.98438-1.1562 0.22656-2.3125 0.34375-3.4688 0.34375-2.7734 0-4.9297-0.70312-6.4688-2.1094-1.5312-1.4062-2.2969-3.3789-2.2969-5.9219 0-2.5 0.75391-4.4609 2.2656-5.8906 1.5078-1.4375 3.582-2.1562 6.2188-2.1562 2.4062 0 4.332 0.73047 5.7812 2.1875 1.4453 1.4492 2.1719 3.3828 2.1719 5.7969zm-5.0312-1.625c0-0.92578-0.27344-1.6719-0.8125-2.2344-0.54297-0.57031-1.25-0.85938-2.125-0.85938-0.94922 0-1.7188 0.26562-2.3125 0.79688s-0.96484 1.2969-1.1094 2.2969z"/>
  </symbol>
  <symbol id="f" overflow="visible">
   <path d="m9.2188-6.8906c-1.0234 0-1.793 0.17188-2.3125 0.51562-0.51172 0.34375-0.76562 0.85547-0.76562 1.5312 0 0.625 0.20703 1.1172 0.625 1.4688 0.41406 0.34375 0.98828 0.51562 1.7188 0.51562 0.92578 0 1.7031-0.32812 2.3281-0.98438 0.63281-0.66406 0.95312-1.4922 0.95312-2.4844v-0.5625zm7.4688-1.8438v8.7344h-4.9219v-2.2656c-0.65625 0.92969-1.3984 1.6055-2.2188 2.0312-0.82422 0.41406-1.8242 0.625-3 0.625-1.5859 0-2.8711-0.45703-3.8594-1.375-0.99219-0.92578-1.4844-2.1289-1.4844-3.6094 0-1.7891 0.61328-3.1016 1.8438-3.9375 1.2383-0.84375 3.1797-1.2656 5.8281-1.2656h2.8906v-0.39062c0-0.76953-0.30859-1.332-0.92188-1.6875-0.61719-0.36328-1.5703-0.54688-2.8594-0.54688-1.0547 0-2.0312 0.10547-2.9375 0.3125-0.89844 0.21094-1.7305 0.52344-2.5 0.9375v-3.7344c1.0391-0.25 2.0859-0.44141 3.1406-0.57812 1.0625-0.13281 2.125-0.20312 3.1875-0.20312 2.7578 0 4.75 0.54688 5.9688 1.6406 1.2266 1.0859 1.8438 2.8555 1.8438 5.3125z"/>
  </symbol>
  <symbol id="d" overflow="visible">
   <path d="m7.7031-19.656v4.3438h5.0469v3.5h-5.0469v6.5c0 0.71094 0.14062 1.1875 0.42188 1.4375s0.83594 0.375 1.6719 0.375h2.5156v3.5h-4.1875c-1.9375 0-3.3125-0.39844-4.125-1.2031-0.80469-0.8125-1.2031-2.1797-1.2031-4.1094v-6.5h-2.4219v-3.5h2.4219v-4.3438z"/>
  </symbol>
  <symbol id="k" overflow="visible">
   <path d="m12.766-13.078v-8.2031h4.9219v21.281h-4.9219v-2.2188c-0.66797 0.90625-1.4062 1.5703-2.2188 1.9844s-1.7578 0.625-2.8281 0.625c-1.8867 0-3.4336-0.75-4.6406-2.25-1.2109-1.5-1.8125-3.4258-1.8125-5.7812 0-2.3633 0.60156-4.2969 1.8125-5.7969 1.207-1.5 2.7539-2.25 4.6406-2.25 1.0625 0 2 0.21484 2.8125 0.64062 0.82031 0.42969 1.5664 1.0859 2.2344 1.9688zm-3.2188 9.9219c1.0391 0 1.8359-0.37891 2.3906-1.1406 0.55078-0.76953 0.82812-1.8828 0.82812-3.3438 0-1.457-0.27734-2.5664-0.82812-3.3281-0.55469-0.76953-1.3516-1.1562-2.3906-1.1562-1.043 0-1.8398 0.38672-2.3906 1.1562-0.55469 0.76172-0.82812 1.8711-0.82812 3.3281 0 1.4609 0.27344 2.5742 0.82812 3.3438 0.55078 0.76172 1.3477 1.1406 2.3906 1.1406z"/>
  </symbol>
  <symbol id="j" overflow="visible">
   <path d="m10.5-3.1562c1.0508 0 1.8516-0.37891 2.4062-1.1406 0.55078-0.76953 0.82812-1.8828 0.82812-3.3438 0-1.457-0.27734-2.5664-0.82812-3.3281-0.55469-0.76953-1.3555-1.1562-2.4062-1.1562-1.0547 0-1.8594 0.38672-2.4219 1.1562-0.55469 0.77344-0.82812 1.8828-0.82812 3.3281 0 1.4492 0.27344 2.5586 0.82812 3.3281 0.5625 0.77344 1.3672 1.1562 2.4219 1.1562zm-3.25-9.9219c0.67578-0.88281 1.4219-1.5391 2.2344-1.9688 0.82031-0.42578 1.7656-0.64062 2.8281-0.64062 1.8945 0 3.4453 0.75 4.6562 2.25 1.207 1.5 1.8125 3.4336 1.8125 5.7969 0 2.3555-0.60547 4.2812-1.8125 5.7812-1.2109 1.5-2.7617 2.25-4.6562 2.25-1.0625 0-2.0078-0.21094-2.8281-0.625-0.8125-0.42578-1.5586-1.0859-2.2344-1.9844v2.2188h-4.8906v-21.281h4.8906z"/>
  </symbol>
  <symbol id="i" overflow="visible">
   <path d="m0.34375-15.312h4.8906l4.125 10.391 3.5-10.391h4.8906l-6.4375 16.766c-0.64844 1.6953-1.4023 2.8828-2.2656 3.5625-0.86719 0.6875-2 1.0312-3.4062 1.0312h-2.8438v-3.2188h1.5312c0.83203 0 1.4375-0.13672 1.8125-0.40625 0.38281-0.26172 0.67969-0.73047 0.89062-1.4062l0.14062-0.42188z"/>
  </symbol>
  <symbol id="h" overflow="visible">
   <path d="m2.5781-20.406h5.25v20.406h-5.25z"/>
  </symbol>
  <symbol id="e" overflow="visible">
   <path d="m14.719-14.828v3.9844c-0.65625-0.45703-1.3242-0.79688-2-1.0156-0.66797-0.21875-1.3594-0.32812-2.0781-0.32812-1.3672 0-2.4336 0.40234-3.2031 1.2031-0.76172 0.79297-1.1406 1.9062-1.1406 3.3438 0 1.4297 0.37891 2.543 1.1406 3.3438 0.76953 0.79297 1.8359 1.1875 3.2031 1.1875 0.75781 0 1.4844-0.10938 2.1719-0.32812 0.6875-0.22656 1.3203-0.56641 1.9062-1.0156v4c-0.76172 0.28125-1.5391 0.48828-2.3281 0.625-0.78125 0.14453-1.5742 0.21875-2.375 0.21875-2.7617 0-4.9219-0.70703-6.4844-2.125-1.5547-1.4141-2.3281-3.3828-2.3281-5.9062 0-2.5312 0.77344-4.5039 2.3281-5.9219 1.5625-1.4141 3.7227-2.125 6.4844-2.125 0.80078 0 1.5938 0.074219 2.375 0.21875 0.78125 0.13672 1.5547 0.35156 2.3281 0.64062z"/>
  </symbol>
  <symbol id="c" overflow="visible">
   <path d="m9.6406-12.188c-1.0859 0-1.9141 0.39062-2.4844 1.1719-0.57422 0.78125-0.85938 1.9062-0.85938 3.375s0.28516 2.5938 0.85938 3.375c0.57031 0.77344 1.3984 1.1562 2.4844 1.1562 1.0625 0 1.875-0.38281 2.4375-1.1562 0.57031-0.78125 0.85938-1.9062 0.85938-3.375s-0.28906-2.5938-0.85938-3.375c-0.5625-0.78125-1.375-1.1719-2.4375-1.1719zm0-3.5c2.6328 0 4.6914 0.71484 6.1719 2.1406 1.4766 1.418 2.2188 3.3867 2.2188 5.9062 0 2.5117-0.74219 4.4805-2.2188 5.9062-1.4805 1.418-3.5391 2.125-6.1719 2.125-2.6484 0-4.7148-0.70703-6.2031-2.125-1.4922-1.4258-2.2344-3.3945-2.2344-5.9062 0-2.5195 0.74219-4.4883 2.2344-5.9062 1.4883-1.4258 3.5547-2.1406 6.2031-2.1406z"/>
  </symbol>
  <symbol id="g" overflow="visible">
   <path d="m17.75-9.3281v9.3281h-4.9219v-7.1406c0-1.3203-0.03125-2.2344-0.09375-2.7344s-0.16797-0.86719-0.3125-1.1094c-0.1875-0.3125-0.44922-0.55469-0.78125-0.73438-0.32422-0.17578-0.69531-0.26562-1.1094-0.26562-1.0234 0-1.8242 0.39844-2.4062 1.1875-0.58594 0.78125-0.875 1.8711-0.875 3.2656v7.5312h-4.8906v-15.312h4.8906v2.2344c0.73828-0.88281 1.5195-1.5391 2.3438-1.9688 0.83203-0.42578 1.75-0.64062 2.75-0.64062 1.7695 0 3.1133 0.54688 4.0312 1.6406 0.91406 1.0859 1.375 2.6562 1.375 4.7188z"/>
  </symbol>
  <symbol id="t" overflow="visible">
   <path d="m0.14062-20.406h18.812v3.9688h-6.7656v16.438h-5.2656v-16.438h-6.7812z"/>
  </symbol>
  <symbol id="s" overflow="visible">
   <path d="m2.3594-21.281h4.8906v11.594l5.625-5.625h5.6875l-7.4688 7.0312 8.0625 8.2812h-5.9375l-5.9688-6.3906v6.3906h-4.8906z"/>
  </symbol>
  <symbol id="r" overflow="visible">
   <path d="m12.422-21.281v3.2188h-2.7031c-0.6875 0-1.1719 0.125-1.4531 0.375-0.27344 0.25-0.40625 0.6875-0.40625 1.3125v1.0625h4.1875v3.5h-4.1875v11.812h-4.8906v-11.812h-2.4375v-3.5h2.4375v-1.0625c0-1.6641 0.46094-2.8984 1.3906-3.7031 0.92578-0.80078 2.3672-1.2031 4.3281-1.2031z"/>
  </symbol>
  <symbol id="q" overflow="visible">
   <path d="m16.547-12.766c0.61328-0.94531 1.3477-1.6719 2.2031-2.1719 0.85156-0.5 1.7891-0.75 2.8125-0.75 1.7578 0 3.0977 0.54688 4.0156 1.6406 0.92578 1.0859 1.3906 2.6562 1.3906 4.7188v9.3281h-4.9219v-7.9844-0.35938c0.007813-0.13281 0.015625-0.32031 0.015625-0.5625 0-1.082-0.16406-1.8633-0.48438-2.3438-0.3125-0.48828-0.82422-0.73438-1.5312-0.73438-0.92969 0-1.6484 0.38672-2.1562 1.1562-0.51172 0.76172-0.77344 1.8672-0.78125 3.3125v7.5156h-4.9219v-7.9844c0-1.6953-0.14844-2.7852-0.4375-3.2656-0.29297-0.48828-0.8125-0.73438-1.5625-0.73438-0.9375 0-1.6641 0.38672-2.1719 1.1562-0.51172 0.76172-0.76562 1.8594-0.76562 3.2969v7.5312h-4.9219v-15.312h4.9219v2.2344c0.60156-0.86328 1.2891-1.5156 2.0625-1.9531 0.78125-0.4375 1.6406-0.65625 2.5781-0.65625 1.0625 0 2 0.25781 2.8125 0.76562 0.8125 0.51172 1.4258 1.2305 1.8438 2.1562z"/>
  </symbol>
  <symbol id="p" overflow="visible">
   <path d="m17.75-9.3281v9.3281h-4.9219v-7.1094c0-1.3438-0.03125-2.2656-0.09375-2.7656s-0.16797-0.86719-0.3125-1.1094c-0.1875-0.3125-0.44922-0.55469-0.78125-0.73438-0.32422-0.17578-0.69531-0.26562-1.1094-0.26562-1.0234 0-1.8242 0.39844-2.4062 1.1875-0.58594 0.78125-0.875 1.8711-0.875 3.2656v7.5312h-4.8906v-21.281h4.8906v8.2031c0.73828-0.88281 1.5195-1.5391 2.3438-1.9688 0.83203-0.42578 1.75-0.64062 2.75-0.64062 1.7695 0 3.1133 0.54688 4.0312 1.6406 0.91406 1.0859 1.375 2.6562 1.375 4.7188z"/>
  </symbol>
  <symbol id="o" overflow="visible">
   <path d="m2.5781-20.406h5.875l7.4219 14v-14h4.9844v20.406h-5.875l-7.4219-14v14h-4.9844z"/>
  </symbol>
  <symbol id="n" overflow="visible">
   <path d="m2.1875-5.9688v-9.3438h4.9219v1.5312c0 0.83594-0.007813 1.875-0.015625 3.125-0.011719 1.25-0.015625 2.0859-0.015625 2.5 0 1.2422 0.03125 2.1328 0.09375 2.6719 0.070313 0.54297 0.17969 0.93359 0.32812 1.1719 0.20703 0.32422 0.47266 0.57422 0.79688 0.75 0.32031 0.16797 0.69141 0.25 1.1094 0.25 1.0195 0 1.8203-0.39062 2.4062-1.1719 0.58203-0.78125 0.875-1.8672 0.875-3.2656v-7.5625h4.8906v15.312h-4.8906v-2.2188c-0.74219 0.89844-1.5234 1.5586-2.3438 1.9844-0.82422 0.41406-1.7344 0.625-2.7344 0.625-1.7617 0-3.1055-0.53906-4.0312-1.625-0.92969-1.082-1.3906-2.6602-1.3906-4.7344z"/>
  </symbol>
  <symbol id="m" overflow="visible">
   <path d="m2.5781-20.406h8.7344c2.5938 0 4.582 0.57812 5.9688 1.7344 1.3945 1.1484 2.0938 2.7891 2.0938 4.9219 0 2.1367-0.69922 3.7812-2.0938 4.9375-1.3867 1.1562-3.375 1.7344-5.9688 1.7344h-3.4844v7.0781h-5.25zm5.25 3.8125v5.7031h2.9219c1.0195 0 1.8047-0.25 2.3594-0.75 0.5625-0.5 0.84375-1.2031 0.84375-2.1094 0-0.91406-0.28125-1.6172-0.84375-2.1094-0.55469-0.48828-1.3398-0.73438-2.3594-0.73438z"/>
  </symbol>
  <symbol id="l" overflow="visible">
   <path d="m2.3594-15.312h4.8906v15.031c0 2.0508-0.49609 3.6172-1.4844 4.7031-0.98047 1.082-2.4062 1.625-4.2812 1.625h-2.4219v-3.2188h0.85938c0.92578 0 1.5625-0.21094 1.9062-0.625 0.35156-0.41797 0.53125-1.2461 0.53125-2.4844zm0-5.9688h4.8906v4h-4.8906z"/>
  </symbol>
 </defs>
 <g>
  <path d="m516.3 114.66c0 22.344-18.117 40.461-40.461 40.461-22.348 0-40.461-18.117-40.461-40.461s18.113-40.461 40.461-40.461c22.344 0 40.461 18.117 40.461 40.461"/>
  <path d="m493.33 219.92c0 3.7734 3.0586 6.8359 6.8203 6.8359 3.7812 0 6.8438-3.0625 6.8438-6.8359 0-3.7695-3.0625-6.8281-6.8438-6.8281-3.7617 0-6.8203 3.0586-6.8203 6.8281zm6.9219-4.9805c2.8008 0 5.0664 2.2734 5.0664 5.0742s-2.2695 5.0781-5.0664 5.0781c-2.793 0-5.0742-2.2773-5.0742-5.0781s2.2812-5.0742 5.0742-5.0742z"/>
  <path d="m466.05 221c0 1.7305-2.5977 1.7305-2.5977 0 0-1.7344 2.5977-1.7344 2.5977 0"/>
  <path d="m429.68 224.58c0-5.5391 1.7148-10.137 4.2773-13.996v98.891c0 0.0625-0.011719 0.11719-0.011719 0.17969v196.11c0 9.4648 7.668 17.141 17.137 17.141s17.129-7.6719 17.129-17.141l0.003907-149.58c2.4805 0.45312 5.0391 0.72266 7.6367 0.72266 2.5586 0 5.0508-0.26172 7.5-0.70703v148.44c0 9.457 7.668 17.137 17.129 17.137 9.4648 0 17.141-7.6719 17.141-17.137l0.003906-187.12c0.042968-0.83594 0.125-1.6562 0.125-2.5039l-0.003906-104.36c2.5469 3.8516 4.2383 8.4102 4.2383 13.922v82.828c0 7.3594 5.9648 13.324 13.328 13.324 7.3516 0 13.332-5.957 13.332-13.324l0.003906-82.828c0-33.371-28.996-50.293-48.883-56.141 2.8398 6.3672 7.3789 20.324 4.6992 40.141 4.5977 1.7461 7.8789 6.1484 7.8789 11.344 0 6.707-5.4648 12.168-12.18 12.168-6.6992 0-12.152-5.4609-12.152-12.168 0-6.3633 4.9375-11.547 11.172-12.059 3.3984-25.277-5.8281-40.309-5.9375-40.465-0.17969-0.29688-0.29297-0.60938-0.35156-0.93359-5.2148-2.3359-10.949-3.7188-17.047-3.7188-6.5469 0-12.73 1.5469-18.25 4.2266h-0.011719v33.996c3.2148 0.47656 5.8125 1.8086 7.7109 4.0664 3.5 4.168 3.3867 10.023 3.1602 12.48 0.85156 0.91406 1.4062 2.1289 1.4062 3.4766 0 2.8242-2.2891 5.1133-5.1055 5.1133-2.8125 0-5.1016-2.2891-5.1016-5.1133 0-2.2617 1.5117-4.1211 3.543-4.793 0.10156-2.0039-0.054687-5.4648-1.9922-7.75-1.3477-1.6016-3.4062-2.375-6.2891-2.375-2.9023 0-4.9961 0.79688-6.4062 2.4258-1.9609 2.2773-2.2227 5.707-2.1914 7.7188 2.0234 0.68359 3.5 2.5352 3.5 4.7812 0 2.8242-2.2891 5.1133-5.1172 5.1133-2.8008 0-5.0977-2.2891-5.0977-5.1133 0-1.3672 0.55859-2.5938 1.4297-3.5117-0.16406-2.4453-0.14062-8.3008 3.4336-12.465 1.9375-2.2383 4.5703-3.5781 7.7852-4.0469v-32.641c-19.898 5.75-49.23 22.676-49.23 56.246h26.656z"/>
  <path d="m446 220.99c0 1.7344-2.5977 1.7344-2.5977 0 0-1.7305 2.5977-1.7305 2.5977 0"/>
  <path d="m502.79 220.01c0 3.3828-5.0703 3.3828-5.0703 0 0-3.3828 5.0703-3.3828 5.0703 0"/>
  <path d="m267 113.57c0 22.402-18.164 40.566-40.566 40.566-22.406 0-40.566-18.164-40.566-40.566 0-22.406 18.16-40.566 40.566-40.566 22.402 0 40.566 18.16 40.566 40.566"/>
  <path d="m243.97 219.11c0 3.7812 3.0703 6.8555 6.8438 6.8555 3.793 0 6.8555-3.0742 6.8555-6.8555s-3.0625-6.8477-6.8555-6.8477c-3.7734 0.007812-6.8438 3.0742-6.8438 6.8477zm6.9453-4.9922c2.8047 0 5.0898 2.2852 5.0898 5.0898 0 2.8047-2.2852 5.0898-5.0898 5.0898-2.8008 0-5.0859-2.2852-5.0859-5.0898 0-2.8047 2.2852-5.0898 5.0859-5.0898z"/>
  <path d="m216.61 220.2c0 1.7305-2.5977 1.7305-2.5977 0 0-1.7344 2.5977-1.7344 2.5977 0"/>
  <path d="m299.42 223.78c0-33.465-29.074-50.43-49.012-56.293 2.8516 6.3789 7.3984 20.379 4.7109 40.246 4.6094 1.7539 7.9023 6.1641 7.9023 11.375 0 6.7266-5.4727 12.195-12.207 12.195-6.7188 0-12.191-5.4727-12.191-12.195 0-6.3789 4.957-11.582 11.207-12.09 3.4102-25.344-5.8477-40.414-5.9453-40.57-0.19141-0.29688-0.29688-0.61719-0.35156-0.94141-5.2266-2.3477-10.977-3.7305-17.09-3.7305-6.5625 0-12.762 1.5469-18.301 4.2383h-0.011719v34.086c3.2188 0.47656 5.8242 1.8125 7.7266 4.0781 3.5117 4.1758 3.4062 10.039 3.1641 12.516 0.86328 0.91406 1.418 2.1328 1.418 3.4883 0 2.8281-2.2969 5.125-5.125 5.125-2.8125 0-5.1133-2.2969-5.1133-5.125 0-2.2734 1.5195-4.1367 3.5508-4.8047 0.10547-2.0117-0.050781-5.4805-1.9922-7.7734-1.3555-1.6016-3.4141-2.3789-6.3047-2.3789-2.9102 0-5.0078 0.79688-6.418 2.4297-1.9727 2.2852-2.2344 5.7188-2.207 7.7344 2.0312 0.68359 3.5117 2.543 3.5117 4.793 0 2.8281-2.2969 5.125-5.125 5.125-2.8125 0-5.1172-2.2969-5.1172-5.125 0-1.3711 0.55859-2.6055 1.4336-3.5234-0.15625-2.4531-0.13281-8.3203 3.4453-12.492 1.9492-2.2461 4.582-3.5898 7.8047-4.0586l-0.007812-32.727c-19.945 5.7617-49.359 22.734-49.359 56.398v83.047c0 7.3789 5.9883 13.363 13.367 13.363 7.3711 0 13.367-5.9805 13.367-13.363v-83.047c0-5.5547 1.7148-10.16 4.2969-14.027v99.148c0 0.0625-0.011719 0.125-0.011719 0.18359v196.63c0 9.4922 7.6758 17.18 17.176 17.18 9.4883 0 17.168-7.6953 17.168-17.18v-149.98c2.4883 0.46094 5.0469 0.72656 7.6602 0.72656 2.5664 0 5.0625-0.26172 7.5156-0.70703v148.83c0 9.4883 7.6875 17.18 17.168 17.18 9.4961 0 17.188-7.6953 17.188-17.18v-187.61c0.050781-0.83984 0.11719-1.6641 0.11719-2.5078v-104.65c2.5664 3.8594 4.2617 8.4375 4.2617 13.961z"/>
  <path d="m196.51 220.19c0 1.7344-2.5977 1.7344-2.5977 0 0-1.7305 2.5977-1.7305 2.5977 0"/>
  <path d="m253.46 219.21c0 3.3984-5.0938 3.3984-5.0938 0 0-3.3984 5.0938-3.3984 5.0938 0"/>
  <path d="m395.67 75.926c0 24.727-20.043 44.77-44.77 44.77-24.727 0-44.773-20.043-44.773-44.77 0-24.727 20.047-44.773 44.773-44.773 24.727 0 44.77 20.047 44.77 44.773"/>
  <path d="m370.25 192.39c0 4.1719 3.3867 7.5664 7.5547 7.5664 4.1719 0 7.5703-3.3945 7.5703-7.5664s-3.3945-7.5586-7.5703-7.5586c-4.1602-0.003907-7.5547 3.3867-7.5547 7.5586zm7.6602-5.5117c3.0898 0 5.6094 2.5195 5.6094 5.6094 0 3.0977-2.5195 5.6172-5.6094 5.6172-3.0977 0-5.6172-2.5195-5.6172-5.6172 0.003906-3.0938 2.5273-5.6094 5.6172-5.6094z"/>
  <path d="m340.08 193.58c0 1.918-2.8789 1.918-2.8789 0 0-1.9219 2.8789-1.9219 2.8789 0"/>
  <path d="m377.36 135.43c3.1406 7.043 8.1641 22.484 5.2031 44.418 5.0781 1.9336 8.7148 6.8047 8.7148 12.555 0 7.4219-6.0312 13.461-13.461 13.461-7.4141 0-13.453-6.043-13.453-13.461 0-7.0391 5.4648-12.777 12.363-13.344 3.7617-27.973-6.4531-44.598-6.5703-44.773-0.20312-0.33203-0.32422-0.68359-0.38672-1.043-5.7695-2.5938-12.117-4.1211-18.855-4.1211-7.2461 0-14.09 1.7148-20.199 4.6797h-0.011719v37.621c3.5664 0.52734 6.4414 2.0039 8.5352 4.5039 3.8711 4.6094 3.7539 11.082 3.4961 13.809 0.95312 1.0117 1.5586 2.3594 1.5586 3.8516 0 3.1211-2.5312 5.6523-5.6523 5.6523-3.1211 0-5.6523-2.5352-5.6523-5.6523 0-2.5078 1.668-4.5625 3.9258-5.3047 0.10156-2.2227-0.074219-6.0547-2.2109-8.5781-1.5-1.7695-3.7812-2.625-6.957-2.625-3.2148 0-5.5273 0.87891-7.0938 2.6875-2.168 2.5195-2.4648 6.3008-2.4297 8.5273 2.2383 0.75781 3.875 2.8125 3.875 5.293 0 3.1211-2.5352 5.6523-5.6602 5.6523-3.1094 0-5.6445-2.5352-5.6445-5.6523 0-1.5117 0.61719-2.8711 1.5781-3.8867-0.17969-2.7031-0.15625-9.1914 3.8086-13.789 2.1406-2.4805 5.0469-3.9648 8.6133-4.4844v-36.113c-22.02 6.3633-54.48 25.09-54.48 62.242v91.645c0 8.1484 6.6133 14.746 14.75 14.746 8.1367 0 14.75-6.5977 14.75-14.746l-0.003906-91.648c0-6.1328 1.8945-11.219 4.7383-15.488v109.42c0 0.066406-0.015625 0.13281-0.015625 0.20312v217c0 10.473 8.4844 18.961 18.961 18.961 10.473 0 18.957-8.4883 18.957-18.961v-165.52c2.7422 0.50781 5.5664 0.80469 8.457 0.80469 2.832 0 5.5898-0.29297 8.2812-0.78516v164.25c0 10.473 8.5 18.961 18.961 18.961 10.477 0 18.969-8.4883 18.969-18.961l-0.003906-207.04c0.054687-0.92578 0.12891-1.8359 0.12891-2.7734v-115.48c2.8281 4.2617 4.6992 9.3125 4.6992 15.406v91.645c0 8.1484 6.6016 14.746 14.75 14.746 8.1367 0 14.746-6.5977 14.746-14.746v-91.645c0-36.926-32.09-55.652-54.078-62.121z"/>
  <path d="m317.88 193.58c0 1.9102-2.8672 1.9102-2.8672 0 0-1.9141 2.8672-1.9141 2.8672 0"/>
  <path d="m380.73 192.5c0 3.7461-5.6211 3.7461-5.6211 0 0-3.75 5.6211-3.75 5.6211 0"/>
  
 </g>
</svg>
